# xmcd
#
# Track frame offsets: 
#        150
#        18414
#        35054
#        52428
#        69995
#        85485
#        103971
#        121709
#        143246
#        161218
#        177518
#        195181
#        213189
#
# Disc length: 3069 seconds
#
# Revision: 0
# Processed by: cddbd v1.5.2PL0 Copyright (c) Steve Scherf et al.
# Submitted via: ExactAudioCopy v0.99pb5
#
DISCID=be0bfb0d
DTITLE=McAlister Kemp - All Kinds Of Tough
DYEAR=2010
DGENRE=Country
TTITLE0=All Kinds Of Tough
TTITLE1=Women and Men
TTITLE2=Baby Lets Dance
TTITLE3=I'm Sure Of That
TTITLE4=Hard Work
TTITLE5=It Don't Buy You Love
TTITLE6=Sing Me Home (Featuring Adam Brand)
TTITLE7=Billy
TTITLE8=White Line
TTITLE9=Last Thing I Wanna Do
TTITLE10=Blue Collar Night
TTITLE11=Where Heaven Ends
TTITLE12=Hell Yeah
EXTD=
EXTT0=
EXTT1=
EXTT2=
EXTT3=
EXTT4=
EXTT5=
EXTT6=
EXTT7=
EXTT8=
EXTT9=
EXTT10=
EXTT11=
EXTT12=
PLAYORDER=
